# xmcd
#
# Track frame offsets: 
#        150
#        22180
#        44526
#        64621
#        86892
#        107063
#        130153
#        155121
#        173416
#        193945
#        214566
#        235783
#        260301
#        277768
#        301589
#
# Disc length: 4506 seconds
#
# Revision: 0
# Processed by: cddbd v1.5.2PL0 Copyright (c) Steve Scherf et al.
# Submitted via: ExactAudioCopy v1.0b3
#
DISCID=c811980f
DTITLE=Various Artist - Tripomatic Trance Generations
DYEAR=1900
DGENRE=
TTITLE0=Moon Project - House Builder (Push Rmx)
TTITLE1=Parker and Clind - Generator (Power Club Mix)
TTITLE2=Dreamweaver - Boost (Original Mix)
TTITLE3=Galaxy - Revelation (Dream Mix)
TTITLE4=The Assistant - Groove Rage
TTITLE5=Stephen Parker - D-Mention
TTITLE6=Oddworld - The Joker (DJ Looney Tune's Cardiac Mix)
TTITLE7=Moon Project - Moonrise (Midnight Mix)
TTITLE8=Parker and Clind - Teleportation
TTITLE9=Indicator - Higher (Tyrome Mix)
TTITLE10=Moon Project - Apocalyps
TTITLE11=Trippex - The Revolution (Frank Zolex Rmx)
TTITLE12=Moon Project - Naked Fantasy (DJ Philip Rmx)
TTITLE13=Massimo Marino - Always On My Mind
TTITLE14=Cramer Rause - Sonic (Original Mix)
EXTD=
EXTT0=
EXTT1=
EXTT2=
EXTT3=
EXTT4=
EXTT5=
EXTT6=
EXTT7=
EXTT8=
EXTT9=
EXTT10=
EXTT11=
EXTT12=
EXTT13=
EXTT14=
PLAYORDER=
